PathFileType	4	(X/Y/Z)	Kaydara																																																																																																																									
DataRate	CameraRate	NumFrames	NumMarkers	Units	OrigDataRate	OrigDataStartFrame	OrigNumFrames																																																																																																																					
30	30	5	41	mm	30	37	147																																																																																																																					
Frame#	Time	NABA_LFHD			NABA_RFHD			NABA_LBHD			NABA_RBHD			NABA_LFTShould			NABA_RFTShould			NABA_LRRShould			NABA_RRRShould			NABA_T10			NABA_STRN			NABA_TRUN			NABA_LSHO			NABA_LUPA			NABA_LELB			NABA_LFRM			NABA_LWRA			NABA_LWRB			NABA_LFIN			NABA_RSHO			NABA_RUPA			NABA_RELB			NABA_RFRM			NABA_RWRA			NABA_RWRB			NABA_RFIN			NABA_LFWT			NABA_RFWT			NABA_LBWT			NABA_RBWT			NABA_LTHI			NABA_LKNE			NABA_LSHN			NABA_LANK			NABA_LHEE			NABA_LTOE			NABA_RTHI			NABA_RKNE			NABA_RSHN			NABA_RANK			NABA_RHEE			NABA_RTOE		
		X1	Y1	Z1	X2	Y2	Z2	X3	Y3	Z3	X4	Y4	Z4	X5	Y5	Z5	X6	Y6	Z6	X7	Y7	Z7	X8	Y8	Z8	X9	Y9	Z9	X10	Y10	Z10	X11	Y11	Z11	X12	Y12	Z12	X13	Y13	Z13	X14	Y14	Z14	X15	Y15	Z15	X16	Y16	Z16	X17	Y17	Z17	X18	Y18	Z18	X19	Y19	Z19	X20	Y20	Z20	X21	Y21	Z21	X22	Y22	Z22	X23	Y23	Z23	X24	Y24	Z24	X25	Y25	Z25	X26	Y26	Z26	X27	Y27	Z27	X28	Y28	Z28	X29	Y29	Z29	X30	Y30	Z30	X31	Y31	Z31	X32	Y32	Z32	X33	Y33	Z33	X34	Y34	Z34	X35	Y35	Z35	X36	Y36	Z36	X37	Y37	Z37	X38	Y38	Z38	X39	Y39	Z39	X40	Y40	Z40	X41	Y41	Z41
																																																																																																																												
37	1.21	243.23496	1590.18585	-1881.14471	74.96002	1562.202	-1861.65741	256.29246	1599.47922	-2008.30414	40.268	1574.20532	-1957.14127	239.398	1350.95001	-1960.61127	90.20267	1327.81479	-1957.48779	232.72017	1396.51718	-2083.71384	84.18894	1386.17554	-2071.90353	171.03258	1227.44057	-2149.18823	175.05314	1291.27594	-1912.92709	181.08591	1193.72353	-1865.83527	333.74336	1371.26663	-2017.30804	392.47272	1145.92636	-2075.04974	409.89456	1056.43112	-2057.02469	403.6549	981.05469	-2077.64557	357.96417	833.51181	-2000.84869	430.29579	834.20174	-2008.63983	411.70406	775.38589	-1964.31946	3.88514	1353.91129	-2003.09158	-40.97323	1148.8475	-2078.87329	-72.70092	1031.09108	-2039.06097	-77.08224	935.26886	-2031.03119	-13.0433	814.25537	-1955.05981	-85.96085	802.20688	-1954.1983	-69.33828	767.35779	-1919.41696	305.469	951.7115	-1964.14902	34.90524	950.76279	-1963.56567	249.09382	993.32779	-2134.19357	84.95965	1026.782	-2136.31882	307.80508	656.05698	-2103.14255	305.84614	505.20714	-2049.85382	258.99714	308.64029	-2031.57104	286.65821	158.92406	-2101.86035	230.28549	108.9763	-2153.97293	254.74754	81.81645	-1977.90985	33.54235	667.10197	-2102.56882	50.87678	504.69334	-1992.44629	57.76284	331.69792	-2021.10443	48.06312	143.69614	-2093.81714	92.5042	98.96593	-2162.89398	76.31345	81.69875	-1979.72382
38	1.243	244.53728	1590.12054	-1879.37225	76.03858	1562.35229	-1860.20477	257.68459	1599.31091	-2006.33636	41.59024	1574.31686	-1955.71793	240.51252	1351.55823	-1958.367	90.46947	1328.15018	-1956.13113	234.14865	1396.83655	-2081.651	85.54518	1386.55396	-2070.08408	172.49725	1227.78046	-2147.39487	176.15253	1291.80481	-1910.5629	182.17957	1194.1291	-1863.67203	334.95468	1371.91315	-2014.78394	394.56253	1146.5406	-2071.87317	411.78432	1057.15759	-2053.90793	405.78583	981.90086	-2074.90662	360.37136	833.93265	-1999.03976	432.72854	834.80553	-2006.57944	414.25205	775.69939	-1962.63107	5.10906	1354.3837	-2001.23489	-39.89904	1149.4738	-2077.12479	-71.02003	1031.35033	-2037.23907	-75.0001	935.46654	-2029.05182	-10.48705	814.59694	-1953.6145	-82.97759	802.45964	-1951.8457	-65.99039	767.84531	-1917.16385	306.93886	951.58714	-1962.67075	35.92753	950.65414	-1961.56937	250.4413	993.40912	-2132.93198	86.30596	1027.099	-2135.08881	308.59945	656.05301	-2102.41821	306.44665	505.1178	-2049.3959	259.32425	308.66364	-2031.31485	286.74843	158.96371	-2101.78833	230.30733	109.03975	-2153.88245	254.75834	81.77463	-1977.89948	34.40345	667.4041	-2102.24258	51.59128	504.71771	-1992.4176	58.74316	331.81671	-2021.95602	48.16252	143.8268	-2093.91678	92.61442	98.99215	-2162.91428	76.36223	81.70677	-1979.77493
39	1.277	245.52341	1590.13855	-1877.29782	77.23884	1562.29675	-1858.25363	258.92454	1599.28574	-2004.21005	42.7427	1574.26605	-1954.03214	241.52809	1352.02148	-1955.81223	88.74898	1329.10034	-1953.09341	235.35944	1397.20901	-2079.21753	86.74382	1386.95877	-2067.91031	173.5832	1228.21274	-2145.41168	177.04693	1292.27432	-1908.33023	182.9418	1194.35745	-1861.39145	336.08562	1372.3996	-2012.03842	396.07128	1146.94038	-2068.81256	413.29426	1057.73148	-2050.96146	407.56229	982.65877	-2072.36694	362.70111	834.02939	-1997.2702	434.99413	835.23407	-2004.79477	416.89274	775.90355	-1961.13251	6.22422	1354.89563	-1999.01077	-39.23076	1149.99397	-2074.96292	-69.63524	1031.56219	-2034.78287	-73.20943	935.63881	-2026.49216	-6.88898	815.31197	-1950.86136	-80.15056	802.74986	-1949.05121	-62.9046	768.35793	-1914.25003	307.54787	951.28723	-1961.64276	37.05456	950.61424	-1960.73578	251.30669	993.58414	-2131.62201	87.32176	1027.32849	-2133.74313	309.12874	656.04721	-2101.80344	306.78637	504.99454	-2049.01764	259.45576	308.61416	-2031.11984	286.82268	158.94114	-2101.42502	230.37022	109.10026	-2153.87543	254.71338	81.73428	-1977.87094	34.60497	668.10364	-2102.39853	52.06756	504.66244	-1992.30896	59.00862	331.91372	-2021.96411	48.1298	143.93011	-2094.03641	92.74954	98.9659	-2162.966	76.43091	81.68399	-1979.80057
40	1.31	246.35855	1590.17761	-1874.86252	77.96908	1562.20673	-1856.32935	260.09256	1599.31061	-2001.94855	43.76786	1574.07227	-1951.97403	242.44318	1352.42157	-1953.11127	88.14169	1329.75204	-1950.44388	236.50385	1397.56134	-2076.6748	87.76705	1387.34894	-2065.51559	174.43851	1228.54431	-2143.23196	177.83577	1292.53693	-1905.47028	183.52793	1194.58229	-1858.92365	337.09446	1372.71515	-2009.151	397.23412	1147.32422	-2066.00098	414.52667	1058.20755	-2048.39264	408.92204	983.2785	-2070.1059	364.78802	834.15787	-1995.85388	437.00893	835.634	-2003.42896	419.46632	776.09726	-1960.08148	7.13983	1355.42404	-1996.57318	-38.81876	1150.42664	-2072.15912	-68.82598	1032.14561	-2032.25281	-71.74457	935.87105	-2023.39966	-3.65548	816.50772	-1947.11517	-77.7633	803.09998	-1945.61584	-60.13871	768.84415	-1910.7309	307.83606	951.02493	-1960.21164	37.66761	950.32814	-1960.16098	251.91448	993.86566	-2130.2449	87.96935	1027.63573	-2132.32788	309.66812	656.1187	-2101.12137	307.08044	504.95079	-2048.62503	259.63787	308.6146	-2031.01074	286.90069	158.9348	-2101.46332	230.4229	109.10733	-2153.8533	254.72431	81.76937	-1977.86713	35.33683	667.90306	-2101.42868	52.30573	504.55681	-1992.08252	59.13882	331.87176	-2021.80939	48.18242	143.94419	-2094.03076	92.74599	99.00446	-2162.96707	76.42703	81.67831	-1979.77173
41	1.343	247.071	1590.07843	-1872.1109	78.72568	1562.22488	-1853.90518	261.07662	1599.08752	-1999.15085	44.71553	1573.95828	-1949.66324	243.11361	1352.7092	-1950.10223	89.03067	1330.3804	-1947.7832	237.35849	1397.86057	-2073.81958	88.61032	1387.74704	-2062.72537	175.00834	1229.02763	-2140.92224	178.33153	1292.75787	-1902.5354	183.96751	1194.72389	-1856.17447	337.8294	1372.79266	-2005.93216	398.10875	1147.715	-2063.23181	415.55546	1058.60512	-2045.88821	410.09502	983.84209	-2068.00827	366.55113	834.10568	-1994.58847	438.74863	835.84671	-2002.36755	421.59454	776.09955	-1959.31534	7.89423	1355.95581	-1993.7352	-38.70558	1150.93979	-2068.78235	-68.09742	1032.31117	-2028.38486	-70.84439	936.19629	-2019.60205	-1.76206	817.01378	-1943.88275	-75.75062	803.58925	-1941.46835	-57.74942	769.45946	-1906.67053	307.8768	950.83305	-1958.7175	38.20292	950.04562	-1960.26077	252.23694	994.14986	-2128.6676	88.23396	1027.9792	-2130.81985	309.80595	656.16516	-2100.49225	307.14291	504.88792	-2048.31268	259.64384	308.57824	-2030.91888	286.96478	158.97175	-2101.44119	230.48529	109.13685	-2153.87924	254.75258	81.76243	-1977.91214	35.45035	667.98515	-2100.92545	52.31146	504.46266	-1991.79794	59.15977	331.84231	-2021.6626	48.15717	143.99066	-2093.98895	92.74659	99.03124	-2162.94678	76.37823	81.6774	-1979.78989
